<?xml version="1.0" standalone="no"?>
<!DOCTYPE svg PUBLIC "-//W3C//DTD SVG 20010904//EN"
 "http://www.w3.org/TR/2001/REC-SVG-20010904/DTD/svg10.dtd">
<svg version="1.0" xmlns="http://www.w3.org/2000/svg"
 width="64.000000pt" height="64.000000pt" viewBox="0 0 64.000000 64.000000"
 preserveAspectRatio="xMidYMid meet">
<metadata>
Created by potrace 1.14, written by Peter Selinger 2001-2017
</metadata>
<g transform="translate(0.000000,64.000000) scale(0.100000,-0.100000)"
fill="#000000" stroke="none">
<path d="M175 601 c-73 -47 -95 -70 -133 -141 -33 -65 -52 -161 -27 -140 8 7
15 25 15 40 0 33 44 122 55 112 5 -4 5 -2 2 5 -11 17 38 68 101 107 61 37 61
37 234 27 30 -1 118 -75 118 -99 0 -16 50 -90 79 -116 34 -31 24 0 -19 56 -22
29 -40 60 -40 68 0 9 -20 35 -44 59 -50 49 -86 59 -211 60 -65 1 -75 -2 -130
-38z"/>
<path d="M223 487 c0 -9 5 -13 10 -10 22 14 -1 -16 -44 -55 -43 -39 -47 -41
-62 -24 -8 9 -16 22 -17 27 -5 29 -7 8 -6 -56 1 -39 -2 -73 -6 -76 -5 -2 -8 2
-8 10 0 8 -7 20 -15 27 -8 7 -12 17 -8 24 11 16 11 56 1 62 -5 3 -8 2 -7 -3 1
-4 0 -11 -1 -15 -1 -5 -4 -12 -5 -18 -1 -5 -4 -12 -5 -15 -1 -3 -3 -13 -4 -23
0 -11 -8 -27 -16 -37 -8 -11 -10 -16 -4 -13 6 4 10 -3 10 -16 0 -12 -6 -23
-13 -23 -6 0 -10 4 -7 8 2 4 0 10 -6 14 -6 4 -10 -9 -10 -34 0 -32 5 -44 25
-57 23 -15 25 -22 25 -89 0 -52 4 -76 15 -85 15 -12 47 -7 43 7 -2 4 2 9 7 9
6 1 9 -1 8 -5 -1 -4 4 -8 11 -8 6 0 12 11 12 23 0 18 -3 21 -13 12 -7 -6 -13
-7 -13 -3 0 4 -7 2 -15 -5 -8 -7 -12 -17 -8 -24 3 -6 1 -6 -7 1 -25 24 -19 40
14 39 20 -1 30 4 28 12 -1 6 4 11 10 10 7 -2 12 2 11 8 -1 6 4 11 12 11 8 0
13 -5 12 -11 -1 -6 4 -10 11 -8 6 1 11 -4 10 -10 -2 -7 3 -12 10 -10 6 1 11
-4 10 -10 -2 -7 2 -12 8 -11 6 1 11 -4 11 -11 0 -7 -6 -13 -13 -13 -7 0 -12 5
-11 11 1 6 -8 10 -20 10 -14 -1 -20 3 -16 10 3 6 2 7 -2 3 -17 -15 -13 -36 6
-32 10 2 21 0 24 -6 4 -5 49 -9 101 -9 74 0 93 3 88 13 -6 9 -5 9 8 0 18 -16
32 -5 17 13 -8 10 -6 12 11 9 18 -3 20 -2 10 10 -10 12 -8 13 10 10 17 -3 19
-1 11 9 -9 10 -7 17 6 27 16 12 17 12 8 -1 -5 -9 2 -2 17 15 16 16 31 40 34
52 3 13 10 21 14 18 5 -3 7 3 5 12 -1 10 3 24 9 32 9 12 8 13 -3 6 -9 -5 -12
-4 -8 2 3 5 0 10 -7 10 -14 0 -16 -14 -4 -33 4 -6 1 -11 -7 -11 -8 0 -12 4 -9
9 3 4 -2 11 -10 14 -9 3 -16 12 -16 20 0 7 -18 28 -40 45 -22 18 -40 37 -40
43 0 6 5 3 11 -6 5 -10 15 -18 21 -18 7 0 7 4 1 13 -6 6 -9 19 -7 27 1 8 5 25
8 38 6 28 -25 62 -57 62 -13 0 -35 -12 -49 -27 -26 -28 -26 -28 -8 -51 10 -13
22 -22 25 -22 4 1 9 -1 12 -4 3 -3 -6 -3 -19 -1 -17 3 -25 0 -25 -10 0 -8 3
-12 7 -10 4 2 7 -2 7 -9 0 -8 -13 -12 -36 -11 -20 0 -35 4 -33 8 1 4 2 10 2
13 0 4 6 1 14 -5 10 -8 16 -9 21 -1 4 6 1 9 -7 8 -7 -2 -12 2 -11 8 1 6 -4 11
-12 11 -8 0 -13 -4 -12 -8 1 -4 -2 -6 -8 -5 -5 0 -9 5 -7 9 1 5 -2 6 -8 2 -8
-5 -7 -11 1 -21 6 -8 8 -14 4 -14 -4 0 -2 -7 5 -15 7 -8 16 -13 19 -10 4 2 8
-2 8 -10 0 -8 -3 -13 -6 -12 -3 1 -6 -2 -6 -8 0 -5 8 -9 17 -9 10 1 15 -2 13
-6 -6 -11 -29 -7 -46 7 -8 5 -21 13 -29 16 -10 4 -7 6 6 4 11 -1 22 3 22 8 1
6 -4 10 -10 10 -7 1 -12 7 -10 15 3 11 1 11 -13 0 -23 -19 -42 -21 -56 -4 -6
8 -15 12 -19 9 -10 -6 -7 21 3 31 10 10 9 34 -2 32 -5 -2 -10 2 -11 7 -1 6 -7
17 -13 25 -10 13 -10 13 5 1 10 -7 15 -18 11 -25 -4 -7 -1 -6 9 1 8 7 18 9 22
5 4 -4 6 0 4 8 -2 10 4 14 16 13 57 -5 90 47 56 89 -13 17 -17 18 -17 5z m17
-57 c0 -5 -2 -10 -4 -10 -3 0 -8 5 -11 10 -3 6 -1 10 4 10 6 0 11 -4 11 -10z
m175 -10 c4 -6 -6 -10 -22 -10 -22 0 -25 2 -13 10 19 12 27 12 35 0z m-339
-116 c1 -9 -1 -13 -4 -9 -4 4 -7 10 -7 13 0 4 -4 14 -9 22 -7 12 -6 13 4 3 8
-7 15 -20 16 -29z m153 -73 c2 -1 -2 -7 -8 -14 -6 -8 -9 -16 -6 -19 3 -2 -1
-5 -8 -5 -7 0 -13 10 -13 22 0 21 3 22 35 16z m258 -31 c27 -47 16 -73 -35
-88 -22 -7 -46 -10 -54 -7 -22 9 -62 67 -64 93 -1 21 0 21 17 7 13 -12 19 -13
25 -4 5 8 3 10 -6 4 -8 -5 -11 -4 -7 2 7 12 46 11 66 -1 9 -6 12 -5 7 2 -5 8
24 36 30 29 1 -1 11 -18 21 -37z m-231 -33 c1 -8 -4 -14 -10 -14 -7 0 -12 11
-12 24 0 24 18 16 22 -10z"/>
<path d="M396 198 c3 -5 10 -6 15 -3 13 9 11 12 -6 12 -8 0 -12 -4 -9 -9z"/>
<path d="M420 481 c0 -14 49 -45 57 -37 12 11 -12 41 -36 44 -11 2 -21 -1 -21
-7z"/>
<path d="M529 447 c-5 -25 -3 -37 14 -75 16 -37 16 -47 5 -72 -9 -21 -16 -26
-24 -19 -8 7 -14 6 -19 -1 -9 -14 -35 6 -35 26 0 8 -5 14 -11 14 -5 0 -8 4 -4
9 3 5 1 12 -4 15 -11 7 -9 -13 2 -31 5 -7 5 -13 1 -13 -4 0 3 -11 17 -26 20
-22 25 -23 35 -10 9 14 14 12 34 -9 20 -22 48 -26 35 -5 -3 4 2 13 10 20 10 8
11 18 5 36 -5 13 -7 24 -5 24 3 0 -4 16 -15 36 -11 19 -22 44 -23 54 -3 20
-16 39 -18 27z"/>
<path d="M613 285 c-7 -8 -13 -19 -13 -25 0 -6 -5 -8 -12 -4 -6 4 -8 3 -5 -3
4 -6 1 -16 -7 -22 -13 -11 -13 -25 0 -143 5 -42 3 -63 -7 -74 -12 -14 -11 -16
6 -12 18 3 20 12 20 108 0 93 3 109 23 137 31 44 27 75 -5 38z"/>
<path d="M155 71 c-3 -5 -1 -12 5 -16 5 -3 10 -3 10 1 0 3 8 0 18 -7 14 -11
13 -10 -2 9 -22 25 -23 25 -31 13z"/>
</g>
</svg>
