<?xml version="1.0" standalone="no"?>
<!DOCTYPE svg PUBLIC "-//W3C//DTD SVG 20010904//EN"
 "http://www.w3.org/TR/2001/REC-SVG-20010904/DTD/svg10.dtd">
<svg version="1.0" xmlns="http://www.w3.org/2000/svg"
 width="128.000000pt" height="128.000000pt" viewBox="0 0 128.000000 128.000000"
 preserveAspectRatio="xMidYMid meet">
<metadata>
Created by potrace 1.14, written by Peter Selinger 2001-2017
</metadata>
<g transform="translate(0.000000,128.000000) scale(0.100000,-0.100000)"
fill="#000000" stroke="none">
<path d="M640 1247 c-3 -3 -35 -8 -70 -12 -117 -10 -206 -51 -289 -132 -31
-30 -64 -59 -73 -64 -10 -5 -15 -15 -12 -22 2 -7 -9 -26 -26 -42 -16 -16 -30
-34 -30 -41 0 -6 -6 -17 -14 -23 -8 -7 -18 -27 -22 -44 -8 -41 -72 -159 -90
-170 -10 -6 -14 -31 -14 -96 0 -86 1 -88 34 -120 18 -17 43 -33 55 -34 26 -2
58 -41 64 -78 2 -13 7 -31 10 -39 7 -16 3 -96 -6 -120 -14 -39 -21 -80 -22
-132 l-2 -58 524 0 523 0 -15 38 c-15 38 -15 107 -1 131 5 8 0 24 -14 43 -12
16 -23 35 -24 41 -1 7 -5 17 -8 23 -7 11 -5 29 6 55 4 8 8 34 10 56 2 22 7 46
12 54 5 8 9 29 11 48 3 59 12 80 31 76 9 -1 30 7 46 20 21 17 29 33 33 68 3
25 2 54 -3 64 -8 18 -11 29 -13 50 0 6 -25 36 -53 67 -64 68 -99 112 -117 149
-8 15 -18 27 -21 27 -4 0 -13 15 -20 33 -25 63 -162 162 -240 173 -69 10 -155
16 -160 11z"/>
</g>
</svg>
